#!OML:ASF F:\twosubjects\two\Thursday\Session 1\justin.ASF
:FULLY-SPECIFIED
:DEGREES
469
root 8.87466 13.3463 -13.7955 23.6175 28.6158 2.15006
lowerback 40.2434 0.512077 1.39052
upperback 2.76347 1.71594 1.62047
thorax -16.6969 0.732251 0.232363
lowerneck -16.3635 -13.694 -15.4596
upperneck 1.92554 -17.5242 23.3796
head 6.95152 -7.57311 7.78575
rclavicle 0 3.81667e-014
rhumerus 36.4345 1.76468 -42.3777
rradius 106.785
rwrist -4.04691
rhand -4.00365 1.46214
rfingers 7.12502
rthumb 21.7505 -27.3358
lclavicle 0 3.81667e-014
lhumerus 36.4534 -55.5826 81.7279
lradius 84.006
lwrist -27.2249
lhand -5.85305 75.8965
lfingers 7.12502
lthumb 19.9736 -104.89
rfemur -68.8936 -31.1456 -3.16584
rtibia 69.6031
rfoot -8.8934 -5.30964
rtoes -33.7643
lfemur -62.2784 21.8317 -0.140122
ltibia 76.0373
lfoot -29.3132 -2.97182
ltoes -28.9845
470
root 8.86277 13.3277 -13.8153 23.2678 28.8522 2.0188
lowerback 40.5256 0.447471 1.46398
upperback 2.87408 1.659 1.52927
thorax -16.6568 0.702861 0.117393
lowerneck -16.1244 -13.6202 -15.2466
upperneck 1.77593 -17.463 23.3505
head 6.83095 -7.56633 7.76441
rclavicle 5.48646e-014 -3.97569e-015
rhumerus 36.5388 1.23733 -42.9101
rradius 106.369
rwrist -4.27712
rhand -2.26798 1.35712
rfingers 7.12502
rthumb 23.4163 -27.2382
lclavicle 5.48646e-014 -3.97569e-015
lhumerus 37.0105 -55.7227 81.5412
lradius 83.9473
lwrist -27.2132
lhand -4.58695 77.1221
lfingers 7.12502
lthumb 21.1902 -105.984
rfemur -68.6722 -31.2455 -3.13115
rtibia 69.7453
rfoot -8.99922 -5.29977
rtoes -33.1311
lfemur -62.2949 21.7664 0.11041
ltibia 76.2136
lfoot -29.2791 -3.17726
ltoes -28.8372
471
root 8.85366 13.3062 -13.8372 23.2587 28.9125 2.12195
lowerback 40.7037 0.46336 1.37456
upperback 2.83836 1.61522 1.37518
thorax -16.7606 0.684653 0.012038
lowerneck -16.144 -13.6707 -15.3808
upperneck 2.11783 -17.5909 23.5341
head 7.0024 -7.60273 7.822
rclavicle 8.74653e-015 2.22639e-014
rhumerus 36.5208 0.917819 -43.2086
rradius 106.088
rwrist -4.1053
rhand -1.09182 1.83009
rfingers 7.12502
rthumb 24.5442 -26.6168
lclavicle 8.74653e-015 2.22639e-014
lhumerus 37.4671 -55.8289 81.3362
lradius 83.9085
lwrist -27.3269
lhand -5.64467 77.5083
lfingers 7.12502
lthumb 20.1739 -106.481
rfemur -68.7617 -31.4043 -3.22764
rtibia 69.8593
rfoot -8.97421 -5.09501
rtoes -32.5286
lfemur -62.4527 21.6873 0.077309
ltibia 76.332
lfoot -29.2384 -3.45917
ltoes -28.3264
472
root 8.84489 13.2856 -13.861 23.5688 28.786 2.44896
lowerback 40.5998 0.526785 1.08139
upperback 2.79155 1.51606 1.13958
thorax -16.7805 0.655296 -0.048078
lowerneck -16.0925 -13.7617 -15.6798
upperneck 2.43168 -17.7779 23.9318
head 7.21029 -7.66433 7.97022
rclavicle 3.18055e-014 -3.18055e-015
rhumerus 36.4788 0.712762 -43.3692
rradius 105.893
rwrist -3.35857
rhand -0.693621 2.27074
rfingers 7.12502
rthumb 24.9258 -26.1238
lclavicle 3.18055e-014 -3.18055e-015
lhumerus 37.6779 -55.8471 81.1379
lradius 83.9073
lwrist -27.4566
lhand -3.96844 77.1734
lfingers 7.12502
lthumb 21.7843 -105.967
rfemur -69.1721 -31.6249 -3.42518
rtibia 69.9477
rfoot -8.87603 -4.77517
rtoes -31.926
lfemur -62.7875 21.673 -0.265573
ltibia 76.4329
lfoot -29.3768 -3.4313
ltoes -29.535
473
root 8.82941 13.2691 -13.8794 23.5561 28.8541 2.50733
lowerback 40.6073 0.478049 1.0336
upperback 2.80588 1.39695 0.94111
thorax -16.7605 0.603678 -0.18707
lowerneck -15.9239 -13.7775 -15.7109
upperneck 2.49976 -17.869 24.2214
head 7.26478 -7.70191 8.06325
rclavicle -4.6118e-014 -3.02153e-014
rhumerus 36.3303 0.449687 -43.5919
rradius 105.988
rwrist -3.04019
rhand 0.063337 1.83161
rfingers 7.12502
rthumb 25.651 -26.4604
lclavicle -4.6118e-014 -3.02153e-014
lhumerus 37.4571 -55.8589 81.2452
lradius 83.7979
lwrist -27.571
lhand -5.11139 76.7456
lfingers 7.12502
lthumb 20.6864 -105.663
rfemur -69.3381 -31.831 -3.38233
rtibia 70.0702
rfoot -8.71134 -4.60694
rtoes -32.0488
lfemur -62.9598 21.6938 -0.294571
ltibia 76.5256
lfoot -29.4062 -3.36922
ltoes -31.0441
474
root 8.81127 13.2535 -13.8894 23.2297 29.0607 2.17765
lowerback 40.4987 0.438755 1.17925
upperback 2.96459 1.40567 0.912179
thorax -16.5233 0.60106 -0.298264
lowerneck -15.5666 -13.6475 -15.4655
upperneck 2.21195 -17.7298 24.2631
head 7.0705 -7.66894 8.08082
rclavicle -4.85035e-014 -1.98785e-015
rhumerus 36.2787 0.0699517 -43.7597
rradius 106.23
rwrist -3.21945
rhand 1.17727 1.00764
rfingers 7.12502
rthumb 26.7175 -27.1262
lclavicle -4.85035e-014 -1.98785e-015
lhumerus 37.1951 -55.7494 81.6706
lradius 83.7316
lwrist -27.7349
lhand -4.40791 76.3907
lfingers 7.12502
lthumb 21.3622 -105.233
rfemur -69.3728 -31.919 -2.95837
rtibia 70.2721
rfoot -8.6903 -4.59604
rtoes -32.6459
lfemur -62.9707 21.8114 0.136164
ltibia 76.5369
lfoot -28.9489 -4.15889
ltoes -29.6408
